<svg aria-hidden="true" style="position: absolute; width: 0; height: 0; overflow: hidden;" version="1.1" xmlns="http://www.w3.org/2000/svg" xmlns:xlink="http://www.w3.org/1999/xlink">
<defs>
<symbol id="icon-brush" viewBox="0 0 32 32">
<path stroke-linejoin="round" stroke-linecap="round" stroke-miterlimit="4" stroke-width="2.6667" d="M17.037 20l-5.037-5.036M2.667 29.333c2.667 0 6.144 0.453 7.967-1.368 0.845-0.845 1.367-2.011 1.367-3.3 0-2.577-2.089-4.667-4.667-4.667-1.289 0-2.455 0.522-3.3 1.367v0c-1.823 1.823 0 5.301-1.367 7.968z"></path>
<path stroke-linejoin="round" stroke-linecap="round" stroke-miterlimit="4" stroke-width="2.6667" d="M10.667 21.333c-0.655-0.656-0.983-0.984-1.168-1.327-0.201-0.366-0.32-0.802-0.32-1.267 0-0.5 0.138-0.968 0.377-1.368l-0.007 0.012c0.197-0.336 0.537-0.651 1.217-1.28l13.157-12.184c0.526-0.502 1.24-0.811 2.027-0.811 1.623 0 2.939 1.316 2.939 2.939 0 0.786-0.309 1.5-0.812 2.028l0.001-0.001-12.183 13.157c-0.631 0.68-0.945 1.020-1.28 1.217-0.388 0.233-0.856 0.371-1.357 0.371-0.464 0-0.901-0.119-1.281-0.327l0.014 0.007c-0.343-0.185-0.671-0.512-1.325-1.168z"></path>
</symbol>
<symbol id="icon-arrow-down" viewBox="0 0 32 32">
<path stroke-linejoin="miter" stroke-linecap="round" stroke-miterlimit="4" stroke-width="2.6667" d="M24 12l-8 8-8-8"></path>
</symbol>
<symbol id="icon-arrow-left" viewBox="0 0 32 32">
<path stroke-linejoin="round" stroke-linecap="round" stroke-miterlimit="4" stroke-width="2.6667" d="M26.667 16h-21.333M13.333 24l-8-8 8-8"></path>
</symbol>
<symbol id="icon-arrow-right" viewBox="0 0 32 32">
<path stroke-linejoin="round" stroke-linecap="round" stroke-miterlimit="4" stroke-width="2.6667" d="M5.333 16h21.333M18.667 8l8 8-8 8"></path>
</symbol>
<symbol id="icon-arrow-up" viewBox="0 0 32 32">
<path stroke-linejoin="round" stroke-linecap="round" stroke-miterlimit="4" stroke-width="2.6667" d="M6.333 25.667l19.333-19.333M25.667 6.333h-18M25.667 6.333v18"></path>
</symbol>
<symbol id="icon-chat" viewBox="0 0 32 32">
<path stroke-linejoin="round" stroke-linecap="round" stroke-miterlimit="4" stroke-width="2.6667" d="M8.125 14.972c-0.080-0.49-0.125-1.056-0.125-1.631 0-0.003 0-0.005 0-0.008v0c0-5.891 4.807-10.667 10.737-10.667 5.929 0 10.736 4.776 10.736 10.667 0 1.331-0.245 2.605-0.693 3.78-0.093 0.243-0.14 0.365-0.16 0.46-0.019 0.077-0.031 0.166-0.032 0.258v0.001c-0.003 0.097 0.011 0.204 0.037 0.419l0.537 4.36c0.057 0.473 0.087 0.709 0.008 0.88-0.070 0.151-0.19 0.269-0.338 0.334l-0.004 0.002c-0.173 0.073-0.408 0.040-0.88-0.029l-4.245-0.623c-0.223-0.032-0.333-0.049-0.435-0.048-0.003-0-0.006-0-0.009-0-0.091 0-0.18 0.010-0.266 0.030l0.008-0.002c-0.099 0.021-0.225 0.068-0.477 0.163-1.128 0.432-2.433 0.683-3.796 0.683-0.575 0-1.14-0.045-1.692-0.13l0.061 0.008M10.176 29.333c3.953 0 7.157-3.283 7.157-7.333s-3.204-7.333-7.157-7.333c-3.953 0-7.159 3.283-7.159 7.333 0 0.813 0.129 1.597 0.369 2.329 0.1 0.309 0.151 0.464 0.168 0.569 0.017 0.111 0.020 0.173 0.013 0.284-0.007 0.107-0.033 0.227-0.087 0.468l-0.815 3.683 3.993-0.545c0.217-0.029 0.327-0.045 0.421-0.044 0.101 0 0.153 0.007 0.253 0.027 0.093 0.017 0.231 0.067 0.508 0.164 0.693 0.253 1.493 0.399 2.328 0.399 0.002 0 0.004 0 0.006 0h-0z"></path>
</symbol>
<symbol id="icon-moon" viewBox="0 0 22 32">
<path fill="#14c57c" style="fill: var(--color2, #14c57c)" d="M0 30.669c5.651-2.469 9.6-8.109 9.6-14.669s-3.949-12.2-9.6-14.669c1.878-0.841 4.071-1.331 6.378-1.331 0.008 0 0.015 0 0.023 0h-0.001c8.837 0 16 7.163 16 16s-7.163 16-16 16c-0.006 0-0.014 0-0.022 0-2.307 0-4.5-0.49-6.48-1.372l0.101 0.040z"></path>
</symbol>
<symbol id="icon-ellipse" viewBox="0 0 32 32">
<path fill="#00b068" style="fill: var(--color1, #00b068)" d="M32 16c0 8.837-7.163 16-16 16s-16-7.163-16-16c0-8.837 7.163-16 16-16s16 7.163 16 16z"></path>
</symbol>
<symbol id="icon-location" viewBox="0 0 32 32">
<path stroke-linejoin="round" stroke-linecap="round" stroke-miterlimit="4" stroke-width="1.3333" d="M20 14c0 2.209-1.791 4-4 4s-4-1.791-4-4v0c0-2.209 1.791-4 4-4s4 1.791 4 4v0 0z"></path>
<path stroke-linejoin="round" stroke-linecap="round" stroke-miterlimit="4" stroke-width="1.3333" d="M26 14c0 9.523-10 15-10 15s-10-5.477-10-15c0-5.523 4.477-10 10-10s10 4.477 10 10v0 0z"></path>
</symbol>
<symbol id="icon-mail" viewBox="0 0 32 32">
<path stroke-linejoin="round" stroke-linecap="round" stroke-miterlimit="4" stroke-width="1.3333" d="M29 9v14c0 1.657-1.343 3-3 3v0h-20c-1.657 0-3-1.343-3-3v0-14M29 9c0-1.657-1.343-3-3-3v0h-20c-1.657 0-3 1.343-3 3v0M29 9v0.324c0 0 0 0 0 0 0 1.075-0.565 2.017-1.414 2.547l-0.013 0.007-10 6.153c-0.447 0.28-0.991 0.446-1.573 0.446s-1.126-0.166-1.586-0.453l0.013 0.007-10-6.152c-0.862-0.537-1.427-1.48-1.427-2.554 0-0 0-0 0-0v0-0.325"></path>
</symbol>
<symbol id="icon-phone" viewBox="0 0 32 32">
<path stroke-linejoin="round" stroke-linecap="round" stroke-miterlimit="4" stroke-width="1.3333" d="M3 9c0 11.045 8.955 20 20 20h3c1.657 0 3-1.343 3-3v0-1.829c0-0.688-0.468-1.288-1.136-1.455l-5.897-1.475c-0.587-0.147-1.203 0.073-1.564 0.556l-1.293 1.724c-0.376 0.501-1.025 0.723-1.613 0.507-4.43-1.661-7.863-5.094-9.488-9.413l-0.036-0.111c-0.216-0.588 0.005-1.237 0.507-1.613l1.724-1.293c0.484-0.361 0.703-0.979 0.556-1.564l-1.475-5.897c-0.169-0.657-0.756-1.136-1.455-1.136h-1.829c-1.657 0-3 1.343-3 3v0 3z"></path>
</symbol>
<symbol id="icon-time" viewBox="0 0 32 32">
<path stroke-linejoin="round" stroke-linecap="round" stroke-miterlimit="4" stroke-width="2.9091" d="M24.964 1.455h-17.929c-0.672 0-1.217 0.545-1.217 1.217v0c0 0 0 0 0 0 0 4.036 1.636 7.69 4.281 10.336l1.775 1.775c0.175 0.175 0.263 0.263 0.326 0.349 0.18 0.239 0.288 0.542 0.288 0.869s-0.108 0.63-0.291 0.873l0.003-0.004c-0.104 0.127-0.211 0.241-0.324 0.347l-0.002 0.002-1.775 1.773c-2.645 2.645-4.281 6.299-4.281 10.336 0 0 0 0 0 0v-0c0 0.672 0.545 1.217 1.217 1.217h17.929c0.672 0 1.217-0.545 1.217-1.217v0c0-0 0-0 0-0 0-4.036-1.636-7.69-4.281-10.336l-1.775-1.775c-0.175-0.175-0.263-0.263-0.326-0.349-0.18-0.239-0.288-0.542-0.288-0.869s0.108-0.63 0.291-0.873l-0.003 0.004c0.063-0.084 0.15-0.172 0.326-0.349l1.775-1.773c2.645-2.645 4.281-6.3 4.281-10.336 0-0 0-0 0-0v0c0-0.672-0.545-1.217-1.217-1.217v0z"></path>
</symbol>
<symbol id="icon-user" viewBox="0 0 32 32">
<path stroke-linejoin="round" stroke-linecap="round" stroke-miterlimit="4" stroke-width="2.6667" d="M26.667 28c0-1.861 0-2.791-0.229-3.548-0.529-1.708-1.848-3.026-3.518-3.546l-0.038-0.010c-0.757-0.229-1.687-0.229-3.548-0.229h-6.667c-1.861 0-2.791 0-3.548 0.229-1.708 0.529-3.027 1.848-3.546 3.518l-0.010 0.038c-0.229 0.757-0.229 1.687-0.229 3.548M16 16c3.314 0 6-2.686 6-6s-2.686-6-6-6v0c-3.314 0-6 2.686-6 6s2.686 6 6 6v0z"></path>
</symbol>
<symbol id="icon-menu" viewBox="0 0 32 32">
<path d="M5.334 23.027v-1.333h21.333v1.333h-21.333zM5.334 16.667v-1.333h21.333v1.333h-21.333zM5.334 10.307v-1.333h21.333v1.333h-21.333z"></path>
</symbol>
<symbol id="icon-menu-close" viewBox="0 0 32 32">
<path stroke-linejoin="round" stroke-linecap="round" stroke-miterlimit="4" stroke-width="2" d="M24 8l-16 16M8 8l16 16"></path>
</symbol>
<symbol id="icon-arrow-right-upd" viewBox="0 0 32 32">
<path stroke-linejoin="round" stroke-linecap="round" stroke-miterlimit="4" stroke-width="2.6667" d="M5.333 16h21.333M18.667 8l8 8-8 8"></path>
</symbol>
<symbol id="icon-arrow-left-upd" viewBox="0 0 32 32">
<path stroke-linejoin="round" stroke-linecap="round" stroke-miterlimit="4" stroke-width="2.6667" d="M26.667 16h-21.333M13.333 24l-8-8 8-8"></path>
</symbol>
<symbol id="icon-Arrow-1" viewBox="0 0 45 24">
<path d="M1.5 10.5c-0.828 0-1.5 0.672-1.5 1.5s0.672 1.5 1.5 1.5v-3zM44.561 13.061c0.586-0.586 0.586-1.536 0-2.121l-9.546-9.546c-0.586-0.586-1.535-0.586-2.121 0s-0.586 1.536 0 2.121l8.485 8.485-8.485 8.485c-0.586 0.586-0.586 1.535 0 2.121s1.536 0.586 2.121 0l9.546-9.546zM1.5 13.5h42v-3h-42v3z"></path>
</symbol>
<symbol id="icon-arrow-order" viewBox="0 0 32 32">
<path fill="#00b068" style="fill: var(--color1, #00b068)" d="M1.067 14.933c-0.589 0-1.067 0.478-1.067 1.067s0.478 1.067 1.067 1.067v-2.133zM31.688 16.754c0.417-0.417 0.417-1.092 0-1.508l-6.788-6.788c-0.417-0.417-1.092-0.417-1.508 0s-0.417 1.092 0 1.508l6.034 6.034-6.034 6.034c-0.417 0.417-0.417 1.092 0 1.508s1.092 0.417 1.508 0l6.788-6.788zM1.067 17.067h29.867v-2.133h-29.867v2.133z"></path>
</symbol>
<symbol id="icon-valid" viewBox="0 0 24 24">
<path d="M12 1.5c2.785 0 5.456 1.106 7.425 3.075s3.075 4.64 3.075 7.425-1.106 5.456-3.075 7.425c-1.969 1.969-4.64 3.075-7.425 3.075s-5.455-1.106-7.425-3.075c-1.969-1.969-3.075-4.64-3.075-7.425s1.106-5.455 3.075-7.425c1.969-1.969 4.64-3.075 7.425-3.075zM10.692 14.072l-2.332-2.334c-0.084-0.084-0.183-0.15-0.292-0.195s-0.226-0.069-0.345-0.069c-0.118 0-0.235 0.023-0.345 0.069s-0.209 0.112-0.292 0.195c-0.169 0.169-0.264 0.398-0.264 0.637s0.095 0.468 0.264 0.637l2.97 2.97c0.083 0.084 0.183 0.151 0.292 0.196s0.226 0.069 0.345 0.069 0.236-0.023 0.345-0.069c0.109-0.045 0.208-0.112 0.292-0.196l6.15-6.152c0.085-0.083 0.152-0.183 0.198-0.292s0.070-0.227 0.071-0.346c0.001-0.119-0.022-0.237-0.068-0.346s-0.112-0.21-0.196-0.294c-0.084-0.084-0.184-0.151-0.294-0.196s-0.228-0.068-0.346-0.068-0.236 0.024-0.346 0.070c-0.11 0.046-0.209 0.113-0.292 0.198l-5.515 5.516z"></path>
</symbol>
</defs>
</svg>
